<svg xmlns="http://www.w3.org/2000/svg" viewBox="50 50 198 198" role="img" aria-label="rook.host">
  <title>rook.host</title>
  <!-- rook.host lockup sticker — cut-gem die-cut (clip 50/facet 20, sharp), ink mark (eye x1.5) + Space Grotesk Bold rook.host outlined, bone ground. GENERATED by cmo/brand/rooks/generate-rook-lockup.py. Founder-locked 2026-06-29. -->
  <path fill="#ECEAE4" d="M 198.00 50.00 L 248.00 50.00 L 248.00 248.00 L 50.00 248.00 L 50.00 198.00 L 109.86 109.86 Z"/>
  <g transform="translate(98.304,51.129) scale(0.21239)">
    <g fill="#15171C"><path d="M564 309 L470 278 L418 278 L364 332 L462 433 L279 626 L376 725 L302 726 L288 741 L450 741 L437 726 L387 726 L351 647 L484 484 L484 330 Z"/><path d="M446 433 L369 355 L126 594 L343 539 Z"/><path d="M328 555 L169 595 L58 741 L158 741 Z"/></g>
    <path fill="#F0B43C" d="M443.5 295.2 L476.5 295.2 L460.0 311.7 Z"/>
  </g>
  <path fill="#15171C" d="M97.608 232.62199999999999V219.23H100.956V220.742H101.44200000000001Q101.739 219.932 102.42750000000001 219.55399999999997Q103.116 219.176 104.034 219.176H105.654V222.2H103.98Q102.684 222.2 101.84700000000001 222.8885Q101.01 223.577 101.01 225.00799999999998V232.62199999999999Z M114.402 232.99999999999997Q112.404 232.99999999999997 110.811 232.19Q109.218 231.38 108.30000000000001 229.841Q107.382 228.302 107.382 226.142V225.70999999999998Q107.382 223.54999999999998 108.30000000000001 222.01099999999997Q109.218 220.47199999999998 110.811 219.66199999999998Q112.404 218.85199999999998 114.402 218.85199999999998Q116.4 218.85199999999998 117.993 219.66199999999998Q119.586 220.47199999999998 120.50399999999999 222.01099999999997Q121.422 223.54999999999998 121.422 225.70999999999998V226.142Q121.422 228.302 120.50399999999999 229.841Q119.586 231.38 117.993 232.19Q116.4 232.99999999999997 114.402 232.99999999999997ZM114.402 229.976Q115.968 229.976 116.994 228.9635Q118.02 227.951 118.02 226.06099999999998V225.791Q118.02 223.90099999999998 117.0075 222.88849999999996Q115.995 221.87599999999998 114.402 221.87599999999998Q112.836 221.87599999999998 111.81 222.88849999999996Q110.784 223.90099999999998 110.784 225.791V226.06099999999998Q110.784 227.951 111.81 228.9635Q112.836 229.976 114.402 229.976Z M130.656 232.99999999999997Q128.65800000000002 232.99999999999997 127.06500000000001 232.19Q125.47200000000001 231.38 124.554 229.841Q123.63600000000001 228.302 123.63600000000001 226.142V225.70999999999998Q123.63600000000001 223.54999999999998 124.554 222.01099999999997Q125.47200000000001 220.47199999999998 127.06500000000001 219.66199999999998Q128.65800000000002 218.85199999999998 130.656 218.85199999999998Q132.654 218.85199999999998 134.247 219.66199999999998Q135.84 220.47199999999998 136.758 222.01099999999997Q137.67600000000002 223.54999999999998 137.67600000000002 225.70999999999998V226.142Q137.67600000000002 228.302 136.758 229.841Q135.84 231.38 134.247 232.19Q132.654 232.99999999999997 130.656 232.99999999999997ZM130.656 229.976Q132.222 229.976 133.248 228.9635Q134.274 227.951 134.274 226.06099999999998V225.791Q134.274 223.90099999999998 133.2615 222.88849999999996Q132.249 221.87599999999998 130.656 221.87599999999998Q129.09 221.87599999999998 128.06400000000002 222.88849999999996Q127.03800000000001 223.90099999999998 127.03800000000001 225.791V226.06099999999998Q127.03800000000001 227.951 128.06400000000002 228.9635Q129.09 229.976 130.656 229.976Z M140.53799999999998 232.62199999999999V213.72199999999998H143.94V224.171H144.426L148.85399999999998 219.23H153.28199999999998L147.099 225.70999999999998L153.498 232.62199999999999H149.124L144.426 227.303H143.94V232.62199999999999Z M157.64249999999998 232.99999999999997Q156.549 232.99999999999997 155.8065 232.278243902439Q155.064 231.55648780487803 155.064 230.428743902439Q155.064 229.301 155.8065 228.58549999999997Q156.549 227.86999999999998 157.64249999999998 227.86999999999998Q158.736 227.86999999999998 159.46499999999997 228.59175609756096Q160.194 229.31351219512194 160.194 230.44125609756097Q160.194 231.569 159.46499999999997 232.28449999999998Q158.736 232.99999999999997 157.64249999999998 232.99999999999997Z M163.272 232.62199999999999V213.72199999999998H166.674V220.87699999999998H167.16Q167.376 220.445 167.835 220.01299999999998Q168.294 219.581 169.0635 219.29749999999999Q169.833 219.01399999999998 171.02100000000002 219.01399999999998Q172.58700000000002 219.01399999999998 173.7615 219.72949999999997Q174.936 220.445 175.584 221.70049999999998Q176.232 222.956 176.232 224.63V232.62199999999999H172.83V224.89999999999998Q172.83 223.38799999999998 172.0875 222.63199999999998Q171.345 221.87599999999998 169.96800000000002 221.87599999999998Q168.40200000000002 221.87599999999998 167.538 222.91549999999998Q166.674 223.95499999999998 166.674 225.81799999999998V232.62199999999999Z M186.006 232.99999999999997Q184.008 232.99999999999997 182.41500000000002 232.19Q180.822 231.38 179.904 229.841Q178.986 228.302 178.986 226.142V225.70999999999998Q178.986 223.54999999999998 179.904 222.01099999999997Q180.822 220.47199999999998 182.41500000000002 219.66199999999998Q184.008 218.85199999999998 186.006 218.85199999999998Q188.004 218.85199999999998 189.59699999999998 219.66199999999998Q191.19 220.47199999999998 192.108 222.01099999999997Q193.026 223.54999999999998 193.026 225.70999999999998V226.142Q193.026 228.302 192.108 229.841Q191.19 231.38 189.59699999999998 232.19Q188.004 232.99999999999997 186.006 232.99999999999997ZM186.006 229.976Q187.572 229.976 188.598 228.9635Q189.624 227.951 189.624 226.06099999999998V225.791Q189.624 223.90099999999998 188.61149999999998 222.88849999999996Q187.599 221.87599999999998 186.006 221.87599999999998Q184.44 221.87599999999998 183.414 222.88849999999996Q182.388 223.90099999999998 182.388 225.791V226.06099999999998Q182.388 227.951 183.414 228.9635Q184.44 229.976 186.006 229.976Z M201.45 232.99999999999997Q198.831 232.99999999999997 197.15699999999998 231.86599999999999Q195.483 230.732 195.13199999999998 228.62599999999998L198.26399999999998 227.81599999999997Q198.453 228.761 198.8985 229.301Q199.344 229.84099999999998 200.00549999999998 230.07049999999998Q200.667 230.29999999999998 201.45 230.29999999999998Q202.63799999999998 230.29999999999998 203.20499999999998 229.8815Q203.772 229.463 203.772 228.84199999999998Q203.772 228.22099999999998 203.23199999999997 227.88349999999997Q202.69199999999998 227.546 201.504 227.32999999999998L200.748 227.195Q199.344 226.92499999999998 198.183 226.4525Q197.022 225.98 196.32 225.14299999999997Q195.618 224.30599999999998 195.618 222.98299999999998Q195.618 220.98499999999999 197.076 219.9185Q198.534 218.85199999999998 200.91 218.85199999999998Q203.15099999999998 218.85199999999998 204.63599999999997 219.851Q206.12099999999998 220.85 206.57999999999998 222.47L203.421 223.44199999999998Q203.20499999999998 222.416 202.5435 221.98399999999998Q201.882 221.552 200.91 221.552Q199.938 221.552 199.42499999999998 221.8895Q198.91199999999998 222.22699999999998 198.91199999999998 222.821Q198.91199999999998 223.469 199.452 223.77949999999998Q199.992 224.08999999999997 200.91 224.25199999999998L201.666 224.387Q203.178 224.65699999999998 204.4065 225.10249999999996Q205.635 225.54799999999997 206.3505 226.37149999999997Q207.066 227.195 207.066 228.599Q207.066 230.70499999999998 205.5405 231.85249999999996Q204.015 232.99999999999997 201.45 232.99999999999997Z M214.89600000000002 232.62199999999999Q213.573 232.62199999999999 212.7495 231.7985Q211.92600000000002 230.975 211.92600000000002 229.59799999999998V222.03799999999998H208.578V219.23H211.92600000000002V215.07199999999997H215.328V219.23H219.0V222.03799999999998H215.328V229.004Q215.328 229.814 216.084 229.814H218.67600000000002V232.62199999999999Z"/>
</svg>
