<svg xmlns="http://www.w3.org/2000/svg" viewBox="0 0 1024 1024" role="img" aria-label="vit — open source is social">
  <title>vit — open source is social</title>
  <!-- die-cut sticker: rounded-corner square, transparent outside the corners. Comfortaa Bold tagline OUTLINED (scale=0.13214, gap=0.55*xh). Founder-locked 2026-06-29. GENERATED by generate-vit-lockup.py — edit the generator. -->
  <rect x="0" y="0" width="1024" height="1024" rx="132" ry="132" fill="#0C0F0E"/>
  <g transform="translate(189.143,150.571) scale(11.42857)"><circle cx="16" cy="6" r="3" fill="#34D399"/>
  <path d="M5.5 11 L16 27 L26.5 11" stroke="#34D399" stroke-width="3.5" stroke-linecap="round" stroke-linejoin="round" fill="none"/>

  
  <circle cx="33.5" cy="6" r="3" fill="#34D399"/>
  <line x1="33.5" y1="12.5" x2="33.5" y2="27" stroke="#34D399" stroke-width="3.5" stroke-linecap="round"/>

  
  <line x1="45" y1="7" x2="45" y2="27" stroke="#34D399" stroke-width="3.5" stroke-linecap="round"/>
  <line x1="39" y1="12.5" x2="51" y2="12.5" stroke="#34D399" stroke-width="3.5" stroke-linecap="round"/></g>
  <path fill="#34D399" fill-rule="evenodd" d="M128.470 708.933C149.745 708.933 164.809 693.737 164.809 672.330C164.677 650.792 149.613 635.596 128.470 635.596C107.064 635.596 92.000 650.792 92.000 672.330C92.000 693.737 107.064 708.933 128.470 708.933ZM128.470 697.040C114.728 697.040 104.950 686.866 104.950 672.330C104.950 657.795 114.728 647.488 128.470 647.488C142.213 647.488 151.859 657.795 151.859 672.330C151.859 686.866 142.213 697.040 128.470 697.040Z M191.633 739.325C195.597 739.325 198.372 736.550 198.372 732.586V696.908C204.450 704.308 213.436 708.933 223.875 708.933C243.167 708.933 257.702 693.208 257.702 672.330C257.702 651.452 241.978 635.596 221.232 635.596C200.618 635.596 185.026 651.452 184.894 672.330V732.586C184.894 736.550 187.669 739.325 191.633 739.325ZM221.232 697.040C207.886 697.040 197.843 686.469 197.843 672.330C197.843 658.191 207.886 647.488 221.232 647.488C234.578 647.488 244.753 658.191 244.753 672.330C244.753 686.469 234.578 697.040 221.232 697.040Z M311.747 708.933C319.808 708.933 329.718 705.629 335.664 700.872C338.572 698.626 338.439 695.058 335.400 692.415C333.154 690.566 329.718 690.566 327.075 692.548C323.508 695.190 317.165 697.569 311.747 697.569C298.401 697.569 288.359 689.112 286.377 676.955H336.589C340.157 676.955 342.668 674.577 342.668 671.141C342.668 650.263 330.379 635.596 309.765 635.596C288.887 635.596 274.088 650.792 274.088 672.330C274.088 693.737 289.680 708.933 311.747 708.933ZM309.765 646.960C321.658 646.960 328.925 655.020 330.511 666.384H286.509C288.491 654.888 296.683 646.960 309.765 646.960Z M366.585 708.536C370.549 708.536 373.324 705.762 373.324 701.797V664.534C373.324 654.888 381.913 647.620 393.145 647.620C405.170 647.620 414.155 654.359 414.155 669.291V701.797C414.155 705.629 417.062 708.536 420.894 708.536C424.726 708.536 427.633 705.629 427.633 701.797V669.291C427.633 647.356 413.891 635.464 395.788 635.464C386.802 635.464 378.874 638.767 373.324 644.317V642.863C373.324 638.899 370.549 636.124 366.585 636.124C362.621 636.124 359.846 638.899 359.846 642.863V701.797C359.846 705.762 362.621 708.536 366.585 708.536Z M498.716 708.933C517.348 708.933 527.126 699.287 527.126 687.262C527.126 676.823 520.519 669.820 500.698 665.856C486.427 662.948 483.652 660.041 483.652 655.152C483.652 650.131 489.730 647.356 497.527 647.356C504.266 647.356 509.023 648.677 513.515 652.906C516.158 655.417 520.519 656.342 523.426 654.359C526.201 652.245 526.333 648.942 523.954 646.035C518.669 639.560 509.419 635.596 497.791 635.596C484.313 635.596 470.702 642.070 470.702 655.549C470.702 665.723 478.234 672.991 496.073 676.427C509.816 678.937 514.176 682.769 514.044 688.055C513.912 693.340 508.362 697.040 498.187 697.040C490.127 697.040 482.991 693.473 479.952 690.169C477.441 687.526 473.742 686.866 470.306 689.641C467.267 692.019 466.738 696.115 469.381 698.890C475.195 704.704 486.427 708.933 498.716 708.933Z M576.942 708.933C598.217 708.933 613.280 693.737 613.280 672.330C613.148 650.792 598.084 635.596 576.942 635.596C555.536 635.596 540.472 650.792 540.472 672.330C540.472 693.737 555.536 708.933 576.942 708.933ZM576.942 697.040C563.200 697.040 553.421 686.866 553.421 672.330C553.421 657.795 563.200 647.488 576.942 647.488C590.685 647.488 600.331 657.795 600.331 672.330C600.331 686.866 590.685 697.040 576.942 697.040Z M663.758 709.065C672.743 709.065 680.671 705.762 686.221 700.212V701.665C686.221 705.629 688.996 708.404 692.960 708.404C696.925 708.404 699.699 705.629 699.699 701.665V642.731C699.699 638.767 696.925 635.992 692.960 635.992C688.996 635.992 686.221 638.767 686.221 642.731V679.994C686.221 689.641 677.632 696.908 666.400 696.908C654.376 696.908 645.390 690.169 645.390 675.237V642.731C645.390 638.899 642.483 635.992 638.651 635.992C634.819 635.992 631.912 638.899 631.912 642.731V675.237C631.912 697.172 645.655 709.065 663.758 709.065Z M730.091 708.404C734.452 708.404 736.698 706.026 736.698 701.797V663.213C736.698 651.056 749.516 644.713 766.430 648.017C769.865 648.810 772.772 647.752 773.697 644.053C774.887 639.296 769.469 635.331 758.898 635.331C750.044 635.331 741.984 639.163 736.698 645.242V642.731C736.698 638.371 734.452 636.124 730.091 636.124C725.863 636.124 723.485 638.503 723.485 642.731V701.797C723.485 706.158 725.863 708.404 730.091 708.404Z M820.475 708.933C830.121 708.933 838.049 705.894 844.260 700.080C846.770 697.701 846.374 694.265 843.335 691.755C841.088 689.905 837.785 690.169 835.010 692.415C831.178 695.587 826.553 697.040 820.475 697.040C806.468 697.040 796.954 686.601 796.954 672.330C796.954 657.399 806.204 647.488 819.814 647.488C826.421 647.488 831.442 649.602 835.935 654.359C838.313 656.870 841.617 657.531 844.127 655.813C847.299 653.567 848.092 650.263 845.713 647.488C838.842 639.560 830.253 635.596 819.814 635.596C798.936 635.596 784.004 650.924 784.004 672.330C784.004 693.208 799.200 708.933 820.475 708.933Z M901.079 708.933C909.140 708.933 919.050 705.629 924.997 700.872C927.904 698.626 927.772 695.058 924.732 692.415C922.486 690.566 919.050 690.566 916.408 692.548C912.840 695.190 906.497 697.569 901.079 697.569C887.733 697.569 877.691 689.112 875.709 676.955H925.922C929.489 676.955 932.000 674.577 932.000 671.141C932.000 650.263 919.711 635.596 899.097 635.596C878.219 635.596 863.420 650.792 863.420 672.330C863.420 693.737 879.012 708.933 901.079 708.933ZM899.097 646.960C910.990 646.960 918.258 655.020 919.843 666.384H875.841C877.823 654.888 886.016 646.960 899.097 646.960Z"/>
  <path fill="#34D399" fill-rule="evenodd" d="M252.747 808.364C257.504 808.364 261.468 804.400 261.468 799.643C261.468 794.886 257.504 790.921 252.747 790.921C247.990 790.921 244.026 794.886 244.026 799.643C244.026 804.400 247.990 808.364 252.747 808.364ZM252.747 892.404C256.711 892.404 259.486 889.629 259.486 885.665V826.863C259.486 822.899 256.711 820.124 252.747 820.124C248.783 820.124 246.008 822.899 246.008 826.863V885.665C246.008 889.629 248.783 892.404 252.747 892.404Z M310.888 892.933C329.520 892.933 339.298 883.287 339.298 871.262C339.298 860.823 332.691 853.820 312.871 849.856C298.599 846.948 295.825 844.041 295.825 839.152C295.825 834.131 301.903 831.356 309.699 831.356C316.438 831.356 321.195 832.677 325.688 836.906C328.331 839.417 332.691 840.342 335.598 838.359C338.373 836.245 338.505 832.942 336.127 830.035C330.841 823.560 321.592 819.596 309.963 819.596C296.485 819.596 282.875 826.070 282.875 839.549C282.875 849.723 290.407 856.991 308.246 860.427C321.988 862.937 326.349 866.769 326.217 872.055C326.084 877.340 320.535 881.040 310.360 881.040C302.299 881.040 295.164 877.473 292.125 874.169C289.614 871.526 285.914 870.866 282.479 873.641C279.439 876.019 278.911 880.115 281.554 882.890C287.368 888.704 298.599 892.933 310.888 892.933Z M410.381 892.933C429.013 892.933 438.791 883.287 438.791 871.262C438.791 860.823 432.184 853.820 412.363 849.856C398.092 846.948 395.317 844.041 395.317 839.152C395.317 834.131 401.395 831.356 409.192 831.356C415.931 831.356 420.688 832.677 425.180 836.906C427.823 839.417 432.184 840.342 435.091 838.359C437.866 836.245 437.998 832.942 435.619 830.035C430.334 823.560 421.084 819.596 409.456 819.596C395.978 819.596 382.367 826.070 382.367 839.549C382.367 849.723 389.899 856.991 407.738 860.427C421.481 862.937 425.841 866.769 425.709 872.055C425.577 877.340 420.027 881.040 409.852 881.040C401.792 881.040 394.656 877.473 391.617 874.169C389.107 871.526 385.407 870.866 381.971 873.641C378.932 876.019 378.403 880.115 381.046 882.890C386.860 888.704 398.092 892.933 410.381 892.933Z M488.607 892.933C509.882 892.933 524.946 877.737 524.946 856.330C524.813 834.792 509.750 819.596 488.607 819.596C467.201 819.596 452.137 834.792 452.137 856.330C452.137 877.737 467.201 892.933 488.607 892.933ZM488.607 881.040C474.865 881.040 465.086 870.866 465.086 856.330C465.086 841.795 474.865 831.488 488.607 831.488C502.350 831.488 511.996 841.795 511.996 856.330C511.996 870.866 502.350 881.040 488.607 881.040Z M577.801 892.933C587.447 892.933 595.376 889.894 601.586 884.080C604.097 881.701 603.700 878.265 600.661 875.755C598.415 873.905 595.111 874.169 592.336 876.415C588.504 879.587 583.880 881.040 577.801 881.040C563.794 881.040 554.280 870.601 554.280 856.330C554.280 841.399 563.530 831.488 577.140 831.488C583.747 831.488 588.769 833.602 593.261 838.359C595.640 840.870 598.943 841.531 601.454 839.813C604.625 837.567 605.418 834.263 603.040 831.488C596.168 823.560 587.579 819.596 577.140 819.596C556.262 819.596 541.331 834.924 541.331 856.330C541.331 877.208 556.527 892.933 577.801 892.933Z M632.507 808.364C637.264 808.364 641.228 804.400 641.228 799.643C641.228 794.886 637.264 790.921 632.507 790.921C627.750 790.921 623.786 794.886 623.786 799.643C623.786 804.400 627.750 808.364 632.507 808.364ZM632.507 892.404C636.471 892.404 639.246 889.629 639.246 885.665V826.863C639.246 822.899 636.471 820.124 632.507 820.124C628.543 820.124 625.768 822.899 625.768 826.863V885.665C625.768 889.629 628.543 892.404 632.507 892.404Z M694.480 892.933C704.919 892.933 713.904 888.308 719.983 880.908V885.797C719.983 889.629 722.890 892.536 726.722 892.536C730.554 892.536 733.461 889.629 733.461 885.797V856.330C733.329 835.452 717.736 819.596 697.123 819.596C676.377 819.596 660.652 835.452 660.652 856.330C660.652 877.208 675.188 892.933 694.480 892.933ZM697.123 881.040C683.777 881.040 673.602 870.469 673.602 856.330C673.602 842.191 683.777 831.488 697.123 831.488C710.469 831.488 720.511 842.191 720.511 856.330C720.511 870.469 710.469 881.040 697.123 881.040Z M770.724 892.404H770.989C776.274 892.404 779.974 889.629 779.974 885.797C779.974 881.965 777.463 879.190 774.028 879.190H770.724C766.892 879.190 764.117 874.566 764.117 867.959V795.811C764.117 791.979 761.342 789.204 757.510 789.204C753.678 789.204 750.903 791.979 750.903 795.811V867.959C750.903 882.230 759.096 892.404 770.724 892.404Z"/>
</svg>
