<svg xmlns="http://www.w3.org/2000/svg" viewBox="2.5 2.5 27 32.766" role="img" aria-label="solstone — solstone.app">
  <title>solstone — solstone.app</title>

  <!-- Sun rays: 10 floating wedges with curved inner arc matching the ring -->
  <path fill="#FFFFFF" d="M16.0 2.5 L18.6 7.3 A9.1 9.1 0 0 0 13.4 7.3 Z M23.9 5.1 L23.2 10.5 A9.1 9.1 0 0 0 19.0 7.4 Z M28.8 11.8 L25.1 15.8 A9.1 9.1 0 0 0 23.5 10.9 Z M28.8 20.2 L23.5 21.1 A9.1 9.1 0 0 0 25.1 16.2 Z M23.9 26.9 L19.0 24.6 A9.1 9.1 0 0 0 23.2 21.5 Z M16.0 29.5 L13.4 24.7 A9.1 9.1 0 0 0 18.6 24.7 Z M8.1 26.9 L8.8 21.5 A9.1 9.1 0 0 0 13.0 24.6 Z M3.2 20.2 L6.9 16.2 A9.1 9.1 0 0 0 8.5 21.1 Z M3.2 11.8 L8.5 10.9 A9.1 9.1 0 0 0 6.9 15.8 Z M8.1 5.1 L13.0 7.4 A9.1 9.1 0 0 0 8.8 10.5 Z"/>
  <!-- Sun ring: open annulus -->
  <circle cx="16" cy="16" r="8.0" fill="none" stroke="#FFFFFF" stroke-width="1.2"/>
  <!-- sol — Comfortaa Bold, scale=0.01 SVG/fu, letter-spacing=-100fu, 12.54 wide -->
  <path fill="#FFFFFF" fill-rule="evenodd" d="M12.079 18.795C13.489 18.795 14.229 18.065 14.229 17.155C14.229 16.365 13.729 15.835 12.229 15.535C11.149 15.315 10.939 15.095 10.939 14.725C10.939 14.345 11.399 14.135 11.989 14.135C12.499 14.135 12.859 14.235 13.199 14.555C13.399 14.745 13.729 14.815 13.949 14.665C14.159 14.505 14.169 14.255 13.989 14.035C13.589 13.545 12.889 13.245 12.009 13.245C10.989 13.245 9.959 13.735 9.959 14.755C9.959 15.525 10.529 16.075 11.879 16.335C12.919 16.525 13.249 16.815 13.239 17.215C13.229 17.615 12.809 17.895 12.039 17.895C11.429 17.895 10.889 17.625 10.659 17.375C10.469 17.175 10.189 17.125 9.929 17.335C9.699 17.515 9.659 17.825 9.859 18.035C10.299 18.475 11.149 18.795 12.079 18.795Z M16.999 18.795C18.609 18.795 19.749 17.645 19.749 16.025C19.739 14.395 18.599 13.245 16.999 13.245C15.379 13.245 14.239 14.395 14.239 16.025C14.239 17.645 15.379 18.795 16.999 18.795ZM16.999 17.895C15.959 17.895 15.219 17.125 15.219 16.025C15.219 14.925 15.959 14.145 16.999 14.145C18.039 14.145 18.769 14.925 18.769 16.025C18.769 17.125 18.039 17.895 16.999 17.895Z M21.569 18.755H21.589C21.989 18.755 22.269 18.545 22.269 18.255C22.269 17.965 22.079 17.755 21.819 17.755H21.569C21.279 17.755 21.069 17.405 21.069 16.905V11.445C21.069 11.155 20.859 10.945 20.569 10.945C20.279 10.945 20.069 11.155 20.069 11.445V16.905C20.069 17.985 20.689 18.755 21.569 18.755Z"/>
  <!-- solstone.app — Comfortaa Bold, scale=0.0044 SVG/fu, uniform-gap=33fu, 25.32 wide, centered at (16.0, 33.024) -->
  <path fill="#FFFFFF" fill-rule="evenodd" d="M4.375 34.254C4.995 34.254 5.321 33.933 5.321 33.532C5.321 33.185 5.101 32.952 4.441 32.820C3.966 32.723 3.873 32.626 3.873 32.463C3.873 32.296 4.076 32.204 4.335 32.204C4.560 32.204 4.718 32.248 4.868 32.388C4.956 32.472 5.101 32.503 5.198 32.437C5.290 32.366 5.295 32.256 5.215 32.160C5.039 31.944 4.731 31.812 4.344 31.812C3.895 31.812 3.442 32.028 3.442 32.476C3.442 32.815 3.693 33.057 4.287 33.172C4.745 33.255 4.890 33.383 4.885 33.559C4.881 33.735 4.696 33.858 4.357 33.858C4.089 33.858 3.851 33.739 3.750 33.629C3.667 33.541 3.543 33.519 3.429 33.612C3.328 33.691 3.310 33.827 3.398 33.920C3.592 34.113 3.966 34.254 4.375 34.254Z M6.681 34.254C7.389 34.254 7.891 33.748 7.891 33.035C7.886 32.318 7.385 31.812 6.681 31.812C5.968 31.812 5.466 32.318 5.466 33.035C5.466 33.748 5.968 34.254 6.681 34.254ZM6.681 33.858C6.223 33.858 5.897 33.519 5.897 33.035C5.897 32.551 6.223 32.208 6.681 32.208C7.138 32.208 7.459 32.551 7.459 33.035C7.459 33.519 7.138 33.858 6.681 33.858Z M8.696 34.236H8.705C8.881 34.236 9.004 34.144 9.004 34.016C9.004 33.889 8.920 33.796 8.806 33.796H8.696C8.568 33.796 8.476 33.642 8.476 33.422V31.020C8.476 30.892 8.383 30.800 8.256 30.800C8.128 30.800 8.036 30.892 8.036 31.020V33.422C8.036 33.898 8.309 34.236 8.696 34.236Z M10.183 34.254C10.803 34.254 11.129 33.933 11.129 33.532C11.129 33.185 10.909 32.952 10.249 32.820C9.774 32.723 9.681 32.626 9.681 32.463C9.681 32.296 9.884 32.204 10.143 32.204C10.368 32.204 10.526 32.248 10.676 32.388C10.764 32.472 10.909 32.503 11.006 32.437C11.098 32.366 11.103 32.256 11.023 32.160C10.847 31.944 10.539 31.812 10.152 31.812C9.703 31.812 9.250 32.028 9.250 32.476C9.250 32.815 9.501 33.057 10.095 33.172C10.553 33.255 10.698 33.383 10.693 33.559C10.689 33.735 10.504 33.858 10.165 33.858C9.897 33.858 9.659 33.739 9.558 33.629C9.475 33.541 9.351 33.519 9.237 33.612C9.136 33.691 9.118 33.827 9.206 33.920C9.400 34.113 9.774 34.254 10.183 34.254Z M12.458 34.236H12.537C12.687 34.236 12.797 34.144 12.797 34.016C12.797 33.889 12.713 33.796 12.607 33.796H12.458C12.269 33.796 12.123 33.620 12.123 33.383V32.296H12.497C12.621 32.296 12.704 32.217 12.704 32.111C12.704 31.997 12.621 31.918 12.497 31.918H12.123V31.284C12.123 31.156 12.031 31.064 11.903 31.064C11.776 31.064 11.683 31.156 11.683 31.284V31.918H11.481C11.358 31.918 11.274 31.997 11.274 32.111C11.274 32.217 11.358 32.296 11.481 32.296H11.683V33.383C11.683 33.871 12.018 34.236 12.458 34.236Z M14.156 34.254C14.865 34.254 15.366 33.748 15.366 33.035C15.362 32.318 14.860 31.812 14.156 31.812C13.443 31.812 12.942 32.318 12.942 33.035C12.942 33.748 13.443 34.254 14.156 34.254ZM14.156 33.858C13.699 33.858 13.373 33.519 13.373 33.035C13.373 32.551 13.699 32.208 14.156 32.208C14.614 32.208 14.935 32.551 14.935 33.035C14.935 33.519 14.614 33.858 14.156 33.858Z M15.736 34.241C15.868 34.241 15.960 34.148 15.960 34.016V32.776C15.960 32.454 16.246 32.212 16.620 32.212C17.021 32.212 17.320 32.437 17.320 32.934V34.016C17.320 34.144 17.417 34.241 17.544 34.241C17.672 34.241 17.769 34.144 17.769 34.016V32.934C17.769 32.204 17.311 31.808 16.708 31.808C16.409 31.808 16.145 31.918 15.960 32.102V32.054C15.960 31.922 15.868 31.830 15.736 31.830C15.604 31.830 15.511 31.922 15.511 32.054V34.016C15.511 34.148 15.604 34.241 15.736 34.241Z M19.168 34.254C19.436 34.254 19.766 34.144 19.964 33.986C20.061 33.911 20.057 33.792 19.955 33.704C19.881 33.642 19.766 33.642 19.678 33.708C19.559 33.796 19.348 33.876 19.168 33.876C18.723 33.876 18.389 33.594 18.323 33.189H19.995C20.114 33.189 20.197 33.110 20.197 32.996C20.197 32.300 19.788 31.812 19.102 31.812C18.407 31.812 17.914 32.318 17.914 33.035C17.914 33.748 18.433 34.254 19.168 34.254ZM19.102 32.190C19.498 32.190 19.740 32.459 19.793 32.837H18.327C18.393 32.454 18.666 32.190 19.102 32.190Z M20.646 34.307C20.818 34.307 20.950 34.166 20.950 34.003C20.950 33.836 20.813 33.695 20.646 33.695C20.483 33.695 20.343 33.832 20.343 34.003C20.343 34.170 20.479 34.307 20.646 34.307Z M22.221 34.254C22.569 34.254 22.868 34.100 23.071 33.854V34.016C23.071 34.144 23.167 34.241 23.295 34.241C23.423 34.241 23.519 34.144 23.519 34.016V33.035C23.515 32.340 22.996 31.812 22.309 31.812C21.619 31.812 21.095 32.340 21.095 33.035C21.095 33.730 21.579 34.254 22.221 34.254ZM22.309 33.858C21.865 33.858 21.526 33.506 21.526 33.035C21.526 32.564 21.865 32.208 22.309 32.208C22.754 32.208 23.088 32.564 23.088 33.035C23.088 33.506 22.754 33.858 22.309 33.858Z M23.889 35.266C24.021 35.266 24.113 35.174 24.113 35.042V33.854C24.316 34.100 24.615 34.254 24.963 34.254C25.605 34.254 26.089 33.730 26.089 33.035C26.089 32.340 25.565 31.812 24.875 31.812C24.188 31.812 23.669 32.340 23.665 33.035V35.042C23.665 35.174 23.757 35.266 23.889 35.266ZM24.875 33.858C24.430 33.858 24.096 33.506 24.096 33.035C24.096 32.564 24.430 32.208 24.875 32.208C25.319 32.208 25.658 32.564 25.658 33.035C25.658 33.506 25.319 33.858 24.875 33.858Z M26.459 35.266C26.591 35.266 26.683 35.174 26.683 35.042V33.854C26.885 34.100 27.185 34.254 27.532 34.254C28.175 34.254 28.659 33.730 28.659 33.035C28.659 32.340 28.135 31.812 27.444 31.812C26.758 31.812 26.239 32.340 26.234 33.035V35.042C26.234 35.174 26.327 35.266 26.459 35.266ZM27.444 33.858C27.000 33.858 26.665 33.506 26.665 33.035C26.665 32.564 27.000 32.208 27.444 32.208C27.889 32.208 28.227 32.564 28.227 33.035C28.227 33.506 27.889 33.858 27.444 33.858Z"/>
</svg>
